<svg width="23" height="18" viewBox="0 0 23 18" fill="none" xmlns="http://www.w3.org/2000/svg">
<path d="M9.36979 12.1406C11.2135 11.3906 12.9792 11.0156 14.6667 11.0156C16.3542 11.0156 18.1042 11.3906 19.9167 12.1406C21.7604 12.8594 22.6823 13.8125 22.6823 15V17.0156H6.65104V15C6.65104 13.8125 7.55729 12.8594 9.36979 12.1406ZM5.66667 6.98438H8.66667V9H5.66667V12H3.65104V9H0.651042V6.98438H3.65104V3.98438H5.66667V6.98438ZM17.4792 7.82812C16.6979 8.60938 15.7604 9 14.6667 9C13.5729 9 12.6354 8.60938 11.8542 7.82812C11.0729 7.04688 10.6823 6.10938 10.6823 5.01562C10.6823 3.92188 11.0729 2.98438 11.8542 2.20312C12.6354 1.39063 13.5729 0.984375 14.6667 0.984375C15.7604 0.984375 16.6979 1.39063 17.4792 2.20312C18.2604 2.98438 18.651 3.92188 18.651 5.01562C18.651 6.10938 18.2604 7.04688 17.4792 7.82812Z" fill="#FDFDFD"/>
</svg>
