<svg width="24" height="14" viewBox="0 0 24 14" fill="none" xmlns="http://www.w3.org/2000/svg">
<path d="M15.9844 7.98438C16.8594 7.98438 17.8125 8.10938 18.8438 8.35938C19.875 8.60938 20.8281 9.01562 21.7031 9.57812C22.5781 10.1406 23.0156 10.7812 23.0156 11.5V13.9844H17.0156V11.5C17.0156 10.125 16.3594 8.96875 15.0469 8.03125C15.2656 8 15.5781 7.98438 15.9844 7.98438ZM5.15625 8.35938C6.1875 8.10938 7.14062 7.98438 8.01562 7.98438C8.89062 7.98438 9.84375 8.10938 10.875 8.35938C11.9062 8.60938 12.8438 9.01562 13.6875 9.57812C14.5625 10.1406 15 10.7812 15 11.5V13.9844H0.984375V11.5C0.984375 10.7812 1.42188 10.1406 2.29688 9.57812C3.17188 9.01562 4.125 8.60938 5.15625 8.35938ZM10.0781 5.125C9.51562 5.71875 8.82812 6.01562 8.01562 6.01562C7.20312 6.01562 6.5 5.71875 5.90625 5.125C5.3125 4.53125 5.01562 3.82812 5.01562 3.01562C5.01562 2.20313 5.3125 1.5 5.90625 0.90625C6.5 0.3125 7.20312 0.015625 8.01562 0.015625C8.82812 0.015625 9.51562 0.3125 10.0781 0.90625C10.6719 1.5 10.9688 2.20313 10.9688 3.01562C10.9688 3.82812 10.6719 4.53125 10.0781 5.125ZM18.0938 5.125C17.5 5.71875 16.7969 6.01562 15.9844 6.01562C15.1719 6.01562 14.4688 5.71875 13.875 5.125C13.2812 4.53125 12.9844 3.82812 12.9844 3.01562C12.9844 2.20313 13.2812 1.5 13.875 0.90625C14.4688 0.3125 15.1719 0.015625 15.9844 0.015625C16.7969 0.015625 17.5 0.3125 18.0938 0.90625C18.6875 1.5 18.9844 2.20313 18.9844 3.01562C18.9844 3.82812 18.6875 4.53125 18.0938 5.125Z" fill="#FDFDFD"/>
</svg>
