<svg xmlns="http://www.w3.org/2000/svg" width="100" height="100" viewBox="0 0 100 100" fill="none">
<circle cx="50" cy="50" r="50" fill="#952323"/>
<path d="M52.6399 26C52.6399 24.6193 51.5206 23.5 50.1399 23.5H39.1253C37.7446 23.5 36.6253 24.6193 36.6253 26V50.9188L27.737 25.1839C27.3889 24.1761 26.4401 23.5 25.374 23.5H14.4361C12.6953 23.5 11.4875 25.2346 12.0913 26.8673L29.8846 74.9737C30.2476 75.955 31.1831 76.6065 32.2294 76.6065H50.1399C51.5206 76.6065 52.6399 75.4872 52.6399 74.1065L52.6399 26Z" fill="#FDFDFD" stroke="#952323" stroke-width="3"/>
<path d="M88.5857 26C88.5857 24.6193 87.4664 23.5 86.0857 23.5H55.4076C54.0269 23.5 52.9076 24.6193 52.9076 26V74.1065C52.9076 75.4872 54.0269 76.6065 55.4076 76.6065H65.6351C67.0158 76.6065 68.1351 75.4872 68.1351 74.1065V56.3355H80.9373C82.318 56.3355 83.4373 55.2162 83.4373 53.8355V46.3424C83.4373 44.9617 82.318 43.8424 80.9373 43.8424H68.1351V36.2786H86.0857C87.4664 36.2786 88.5857 35.1593 88.5857 33.7786V26Z" fill="#FDFDFD" stroke="#952323" stroke-width="3"/>
<rect x="42" y="45" width="21" height="10" rx="1" fill="#952323"/>
</svg>