<svg width="20" height="20" viewBox="0 0 20 20" fill="none" xmlns="http://www.w3.org/2000/svg">
<path d="M19.1667 13.3333C19.1667 13.5543 19.0789 13.7663 18.9226 13.9226C18.7663 14.0789 18.5543 14.1667 18.3333 14.1667H15.8333V15.8333H17.5C17.721 15.8333 17.933 15.9211 18.0893 16.0774C18.2455 16.2337 18.3333 16.4457 18.3333 16.6667C18.3333 16.8877 18.2455 17.0996 18.0893 17.2559C17.933 17.4122 17.721 17.5 17.5 17.5H15.8333V19.1667C15.8333 19.3877 15.7455 19.5996 15.5893 19.7559C15.433 19.9122 15.221 20 15 20C14.779 20 14.567 19.9122 14.4107 19.7559C14.2545 19.5996 14.1667 19.3877 14.1667 19.1667V13.3333C14.1667 13.1123 14.2545 12.9004 14.4107 12.7441C14.567 12.5878 14.779 12.5 15 12.5H18.3333C18.5543 12.5 18.7663 12.5878 18.9226 12.7441C19.0789 12.9004 19.1667 13.1123 19.1667 13.3333ZM5.41667 15.4167C5.41667 16.1902 5.10938 16.9321 4.56239 17.4791C4.01541 18.026 3.27355 18.3333 2.5 18.3333H1.66667V19.1667C1.66667 19.3877 1.57887 19.5996 1.42259 19.7559C1.26631 19.9122 1.05435 20 0.833333 20C0.61232 20 0.400358 19.9122 0.244078 19.7559C0.0877975 19.5996 0 19.3877 0 19.1667V13.3333C0 13.1123 0.0877975 12.9004 0.244078 12.7441C0.400358 12.5878 0.61232 12.5 0.833333 12.5H2.5C3.27355 12.5 4.01541 12.8073 4.56239 13.3543C5.10938 13.9013 5.41667 14.6431 5.41667 15.4167ZM3.75 15.4167C3.75 15.0851 3.6183 14.7672 3.38388 14.5328C3.14946 14.2984 2.83152 14.1667 2.5 14.1667H1.66667V16.6667H2.5C2.83152 16.6667 3.14946 16.535 3.38388 16.3005C3.6183 16.0661 3.75 15.7482 3.75 15.4167ZM12.9167 16.25C12.9167 17.2446 12.5216 18.1984 11.8183 18.9016C11.1151 19.6049 10.1612 20 9.16667 20H7.5C7.27899 20 7.06702 19.9122 6.91074 19.7559C6.75446 19.5996 6.66667 19.3877 6.66667 19.1667V13.3333C6.66667 13.1123 6.75446 12.9004 6.91074 12.7441C7.06702 12.5878 7.27899 12.5 7.5 12.5H9.16667C10.1612 12.5 11.1151 12.8951 11.8183 13.5983C12.5216 14.3016 12.9167 15.2554 12.9167 16.25ZM11.25 16.25C11.25 15.6975 11.0305 15.1676 10.6398 14.7769C10.2491 14.3862 9.7192 14.1667 9.16667 14.1667H8.33333V18.3333H9.16667C9.7192 18.3333 10.2491 18.1138 10.6398 17.7231C11.0305 17.3324 11.25 16.8025 11.25 16.25ZM0 9.16667V1.66667C0 1.22464 0.175595 0.800716 0.488155 0.488156C0.800716 0.175595 1.22464 2.57665e-07 1.66667 2.57665e-07H11.6667C11.7761 -8.58215e-05 11.8845 0.0213965 11.9857 0.0632199C12.0869 0.105043 12.1788 0.166388 12.2563 0.24375L18.0896 6.07708C18.1669 6.15453 18.2283 6.24646 18.2701 6.34763C18.3119 6.44879 18.3334 6.5572 18.3333 6.66667V9.16667C18.3333 9.38768 18.2455 9.59964 18.0893 9.75592C17.933 9.9122 17.721 10 17.5 10C17.279 10 17.067 9.9122 16.9107 9.75592C16.7545 9.59964 16.6667 9.38768 16.6667 9.16667V7.5H11.6667C11.4457 7.5 11.2337 7.4122 11.0774 7.25592C10.9211 7.09964 10.8333 6.88768 10.8333 6.66667V1.66667H1.66667V9.16667C1.66667 9.38768 1.57887 9.59964 1.42259 9.75592C1.26631 9.9122 1.05435 10 0.833333 10C0.61232 10 0.400358 9.9122 0.244078 9.75592C0.0877975 9.59964 0 9.38768 0 9.16667ZM12.5 5.83333H15.4885L12.5 2.84479V5.83333Z" fill="#312843" fill-opacity="0.25"/>
</svg>
