<svg width="18" height="17" viewBox="0 0 18 17" fill="none" xmlns="http://www.w3.org/2000/svg">
<path d="M3.70312 11.6406C5.54688 10.8906 7.3125 10.5156 9 10.5156C10.6875 10.5156 12.4375 10.8906 14.25 11.6406C16.0938 12.3594 17.0156 13.3125 17.0156 14.5V16.5156H0.984375V14.5C0.984375 13.3125 1.89062 12.3594 3.70312 11.6406ZM11.8125 7.32812C11.0312 8.10938 10.0938 8.5 9 8.5C7.90625 8.5 6.96875 8.10938 6.1875 7.32812C5.40625 6.54688 5.01562 5.60938 5.01562 4.51562C5.01562 3.42188 5.40625 2.48438 6.1875 1.70312C6.96875 0.890625 7.90625 0.484375 9 0.484375C10.0938 0.484375 11.0312 0.890625 11.8125 1.70312C12.5938 2.48438 12.9844 3.42188 12.9844 4.51562C12.9844 5.60938 12.5938 6.54688 11.8125 7.32812Z" fill="#FBFBFB"/>
</svg>
